{"title":"Stealth [2005] BDRip 1080p Dual Audio [Hin 2Ch-Eng 5.1] Tariq Qu","uid":9199936,"size":3630100335,"categoryP":"video","categoryS":"hd___movies","magnet":"?xt=urn:btih:d6acf9eed77532e04fb8462f87a8e422a60bbc40&amp;dn=Stealth+%5B2005%5D+BDRip+1080p+Dual+Audio+%5BHin+2Ch-Eng+5.1%5D+Tariq+Qu&amp;tr=udp%3A%2F%2Ftracker.openbittorrent.com%3A80&amp;tr=udp%3A%2F%2Fopen.demonii.com%3A1337&amp;tr=udp%3A%2F%2Ftracker.coppersurfer.tk%3A6969&amp;tr=udp%3A%2F%2Fexodus.desync.com%3A6969","seeders":3,"leechers":5,"uploader":"tariq51","files":5,"time":1384570612,"description":"                      [IMG]http://i.imgur.com/LhRnzSt.png[/IMG]\n[b][i][size=3][color=red]RELEASE TITLE:[/color][/size][/i][/b]\n          ======================================\n[b][i][size=3][color=maroon]Stealth [2005] BDRip 1080p Dual Audio [Hin 2Ch-Eng 5.1] Tariq Qureshi.mkv[/color][/size][/i][/b]\n\n\n                     =================================================\n[b][i][size=2][color=Green]THANKS TO \n   PRISAK FOR HINDI AUDIO SPECIAL THANKS TO MOHSIN PATHAN MADE LOGO FOR ME [/color][/size][/i][/b]\n\n                      =================================\n                        [IMG]http://i.imgur.com/MO8y8TI.jpg[/IMG]\n\n========================================================================\n[IMG]http://i.imgur.com/pvex2cf.png[/IMG]\n===========================================\n\n[b][i][size=3][color=red]General:[/color][/size][/i][/b]\n======================================\n[b][i][size=2][color=blue]IMDB LINK                                :http://www.imdb.com/title/tt0382992/\nFormat                                   : Matroska\nFormat version                           : Version 4 / Version 2\nFile size                                : 3.32 GiB\nDuration                                 : 2h 0mn\nOverall bit rate                         : 3 937 Kbps\nEncoded date                             : UTC 2013-11-11 11:51:18\nMovie name                               : Stealth [2005] BDRip 1080p Dual Audio [Hin 2Ch-Eng 5.1] Tariq Qureshi.mkv[/color][/size][/i][/b]\n                                   \n=======================================================================================\n[b][i][size=3][color=red]VIDEO:[/color][/size][/i][/b]\n                            =======================\n\n[b][i][size=2][color=blue]ID                                       : 1\nFormat                                   : AVC\nFormat/Info                              : Advanced Video Codec\nFormat profile                           : &lt;a class=&quot;__cf_email__&quot; href=&quot;/cdn-cgi/l/email-protection&quot; data-cfemail=&quot;90d8f9f7f8d0dca5bea0&quot;&gt;[email&amp;#160;protected]&lt;/a&gt;&lt;script cf-hash='f9e31' type=&quot;text/javascript&quot;&gt;\n/* &lt;![CDATA[ */!function(){try{var t=&quot;currentScript&quot;in document?document.currentScript:function(){for(var t=document.getElementsByTagName(&quot;script&quot;),e=t.length;e--;)if(t[e].getAttribute(&quot;cf-hash&quot;))return t[e]}();if(t&amp;&amp;t.previousSibling){var e,r,n,i,c=t.previousSibling,a=c.getAttribute(&quot;data-cfemail&quot;);if(a){for(e=&quot;&quot;,r=parseInt(a.substr(0,2),16),n=2;a.length-n;n+=2)i=parseInt(a.substr(n,2),16)^r,e+=String.fromCharCode(i);e=document.createTextNode(e),c.parentNode.replaceChild(e,c)}}}catch(u){}}();/* ]]&gt; */&lt;/script&gt;\nFormat settings, CABAC                   : Yes\nFormat settings, ReFrames                : 16 frames\nCodec ID                                 : V_MPEG4/ISO/AVC\nDuration                                 : 2h 0mn\nBit rate                                 : 3 300 Kbps\nWidth                                    : 1 920 pixels\nHeight                                   : 800 pixels\nDisplay aspect ratio                     : 2.40:1\nFrame rate mode                          : Constant\nFrame rate                               : 23.976 fps\nLanguage                                 : English\nDefault                                  : Yes\nForced                                   : No[/color][/size][/i][/b]\n=====================================================================================\n[b][i][size=3][color=red]AUDIO:1[/color][/size][/i][/b]\n          ================\n[b][i][size=2][color=blue]ID                                       : 2\nFormat                                   : AC-3\nFormat/Info                              : Audio Coding 3\nMode extension                           : CM (complete main)\nFormat settings, Endianness              : Big\nCodec ID                                 : A_AC3\nDuration                                 : 2h 0mn\nBit rate mode                            : Constant\nBit rate                                 : 448 Kbps\nChannel(s)                               : 6 channels\nChannel positions                        : Front: L C R, Side: L R, LFE\nSampling rate                            : 48.0 KHz\nBit depth                                : 16 bits\nCompression mode                         : Lossy\nStream size                              : 387 MiB (11%)\nTitle                                    : 5.1 Tariq Qureshi\nLanguage                                 : English\nDefault                                  : No\nForced                                   : No[/color][/size][/i][/b]\n\n===================================================================================\n[b][i][size=3][color=red]AUDIO:2[/color][/size][/i][/b]\n            ================\n[b][i][size=2][color=blue]ID                                       : 3\nFormat                                   : AC-3\nFormat/Info                              : Audio Coding 3\nMode extension                           : CM (complete main)\nFormat settings, Endianness              : Big\nCodec ID                                 : A_AC3\nDuration                                 : 2h 0mn\nBit rate mode                            : Constant\nBit rate                                 : 192 Kbps\nChannel(s)                               : 2 channels\nChannel positions                        : Front: L R\nSampling rate                            : 48.0 KHz\nBit depth                                : 16 bits\nCompression mode                         : Lossy\nStream size                              : 166 MiB (5%)\nTitle                                    : 2Ch Tariq Qureshi\nLanguage                                 : Hindi\nDefault                                  : Yes\nForced                                   : No[/color][/size][/i][/b]\n\n===================================================================================\n[b][i][size=3][color=red][IMG]http://i.imgur.com/Q3KFG70.gif[/IMG][/color][/size][/i][/b]\n            =========================\n[IMG]http://i.imgur.com/oUuG7Fc.png[/IMG]\n[IMG]http://i.imgur.com/kKZjOH4.png[/IMG]\n[IMG]http://i.imgur.com/gKzW9dM.png[/IMG]\n[IMG]http://i.imgur.com/8saeyG4.png[/IMG]\n[IMG]http://i.imgur.com/WyikzRo.png[/IMG]\n[IMG]http://i.imgur.com/lMoqHWX.png[/IMG]\n[IMG]http://i.imgur.com/rnpkgF1.png[/IMG]\n[IMG]http://i.imgur.com/34OYSfn.png[/IMG]\n[IMG]http://i.imgur.com/CnkGj5X.png[/IMG]\n[IMG]http://i.imgur.com/CMT33qq.png[/IMG]\n[IMG]http://i.imgur.com/2Wy1Ufc.png[/IMG]\n[IMG]http://i.imgur.com/gj21cKE.png[/IMG]\n[IMG]http://i.imgur.com/j7ksQXp.png[/IMG]\n===================================================================================\n                   [IMG]http://i.imgur.com/l0xoYyr.jpg[/IMG]\n==================================================================================\n[b][i][size=3][color=red]SEEDING FROM HIGH SPEED SEEDBOX[/color][/size][/i][/b]","torrent":{"xt":"urn:btih:d6acf9eed77532e04fb8462f87a8e422a60bbc40","amp;dn":"Stealth+%5B2005%5D+BDRip+1080p+Dual+Audio+%5BHin+2Ch-Eng+5.1%5D+Tariq+Qu","amp;tr":["udp%3A%2F%2Ftracker.openbittorrent.com%3A80","udp%3A%2F%2Fopen.demonii.com%3A1337","udp%3A%2F%2Ftracker.coppersurfer.tk%3A6969","udp%3A%2F%2Fexodus.desync.com%3A6969"],"infoHash":"d6acf9eed77532e04fb8462f87a8e422a60bbc40","infoHashBuffer":{"type":"Buffer","data":[214,172,249,238,215,117,50,224,79,184,70,47,135,168,228,34,166,11,188,64]},"announce":[],"urlList":[]}}